name analog
datacolumns 19
datarows 29
range 0.384 0.398
endheader
time	ground_force_vx	ground_force_vy	ground_force_vz	ground_force_px	ground_force_py	ground_force_pz	l_ground_force_vx	l_ground_force_vy	l_ground_force_vz	l_ground_force_px	l_ground_force_py	l_ground_force_pz	ground_torque_x	ground_torque_y	ground_torque_z	l_ground_torque_x	l_ground_torque_y	l_ground_torque_z
0.384	-0.0	-0.0	-0.0	19.783252716064453	-39.30651092529297	-989.2569580078124	-0.0	-0.0	-0.0	-0.0	-0.0	-0.0	-0.0	-0.0	-0.0	-0.0	-0.0	-0.0
0.3845	-0.0	-0.0	-0.0	20.18590545654297	-38.82709503173828	-988.4275512695312	-0.0	-0.0	-0.0	-0.0	-0.0	-0.0	-0.0	-0.0	-0.0	-0.0	-0.0	-0.0
0.385	-0.0	-0.0	-0.0	19.80245780944824	-38.78144836425781	-990.0018310546876	-0.0	-0.0	-0.0	-0.0	-0.0	-0.0	-0.0	-0.0	-0.0	-0.0	-0.0	-0.0
0.3855	-0.0	-0.0	-0.0	19.41422271728516	-38.12596130371094	-991.8158569335938	-0.0	-0.0	-0.0	-0.0	-0.0	-0.0	-0.0	-0.0	-0.0	-0.0	-0.0	-0.0
0.386	-0.0	-0.0	-0.0	18.978649139404297	-37.36762619018555	-990.802734375	-0.0	-0.0	-0.0	-0.0	-0.0	-0.0	-0.0	-0.0	-0.0	-0.0	-0.0	-0.0
0.3865	-0.0	-0.0	-0.0	18.38879776000977	-35.89821243286133	-992.0401611328124	-0.0	-0.0	-0.0	-0.0	-0.0	-0.0	-0.0	-0.0	-0.0	-0.0	-0.0	-0.0
0.387	-0.0	-0.0	-0.0	17.46299934387207	-35.3178825378418	-991.9055786132812	-0.0	-0.0	-0.0	-0.0	-0.0	-0.0	-0.0	-0.0	-0.0	-0.0	-0.0	-0.0
0.3875	-0.0	-0.0	-0.0	16.281047821044922	-33.62477111816406	-992.524169921875	-0.0	-0.0	-0.0	-0.0	-0.0	-0.0	-0.0	-0.0	-0.0	-0.0	-0.0	-0.0
0.388	-0.0	-0.0	-0.0	13.8617582321167	-31.976112365722656	-992.2605590820312	-0.0	-0.0	-0.0	-0.0	-0.0	-0.0	-0.0	-0.0	-0.0	-0.0	-0.0	-0.0
0.3885	-0.0	-0.0	-0.0	12.545397758483888	-29.703044891357425	-993.4476928710938	-0.0	-0.0	-0.0	-0.0	-0.0	-0.0	-0.0	-0.0	-0.0	-0.0	-0.0	-0.0
0.389	-0.0	-0.0	-0.0	11.296504020690918	-28.208881378173828	-993.848388671875	-0.0	-0.0	-0.0	-0.0	-0.0	-0.0	-0.0	-0.0	-0.0	-0.0	-0.0	-0.0
0.3895	-0.0	-0.0	-0.0	11.296573638916016	-26.359731674194336	-994.0609741210938	-0.0	-0.0	-0.0	-0.0	-0.0	-0.0	-0.0	-0.0	-0.0	-0.0	-0.0	-0.0
0.39	-0.0	-0.0	-0.0	11.005987167358398	-24.431793212890625	-996.89599609375	-0.0	-0.0	-0.0	-0.0	-0.0	-0.0	-0.0	-0.0	-0.0	-0.0	-0.0	-0.0
0.3905	-0.0	-0.0	-0.0	10.929941177368164	-22.4278507232666	-996.8961791992188	-0.0	-0.0	-0.0	-0.0	-0.0	-0.0	-0.0	-0.0	-0.0	-0.0	-0.0	-0.0
0.391	-0.0	-0.0	-0.0	9.921751976013184	-20.5891227722168	-998.439697265625	-0.0	-0.0	-0.0	-0.0	-0.0	-0.0	-0.0	-0.0	-0.0	-0.0	-0.0	-0.0
0.3915	-0.0	-0.0	-0.0	9.691031455993652	-18.783153533935547	-1000.1129760742188	-0.0	-0.0	-0.0	-0.0	-0.0	-0.0	-0.0	-0.0	-0.0	-0.0	-0.0	-0.0
0.392	-0.0	-0.0	-0.0	8.615736961364746	-17.014575958251953	-1001.8045043945312	-0.0	-0.0	-0.0	-0.0	-0.0	-0.0	-0.0	-0.0	-0.0	-0.0	-0.0	-0.0
0.3925	-0.0	-0.0	-0.0	8.263800621032715	-15.23759651184082	-1003.1246337890624	-0.0	-0.0	-0.0	-0.0	-0.0	-0.0	-0.0	-0.0	-0.0	-0.0	-0.0	-0.0
0.393	-0.0	-0.0	-0.0	7.704826831817627	-12.5436429977417	-1003.031005859375	-0.0	-0.0	-0.0	-0.0	-0.0	-0.0	-0.0	-0.0	-0.0	-0.0	-0.0	-0.0
0.3935	-0.0	-0.0	-0.0	7.1519951820373535	-10.502246856689451	-1002.9017333984376	-0.0	-0.0	-0.0	-0.0	-0.0	-0.0	-0.0	-0.0	-0.0	-0.0	-0.0	-0.0
0.394	-0.0	-0.0	-0.0	7.169426918029785	-8.969614028930664	-1001.8086547851562	-0.0	-0.0	-0.0	-0.0	-0.0	-0.0	-0.0	-0.0	-0.0	-0.0	-0.0	-0.0
0.3945	-0.0	-0.0	-0.0	6.885983467102051	-7.761709213256836	-997.8912963867188	-0.0	-0.0	-0.0	-0.0	-0.0	-0.0	-0.0	-0.0	-0.0	-0.0	-0.0	-0.0
0.395	-0.0	-0.0	-0.0	6.642206192016602	-7.0007100105285645	-995.132568359375	-0.0	-0.0	-0.0	-0.0	-0.0	-0.0	-0.0	-0.0	-0.0	-0.0	-0.0	-0.0
0.3955	-0.0	-0.0	-0.0	7.29887056350708	-4.659157752990723	-991.760986328125	-0.0	-0.0	-0.0	-0.0	-0.0	-0.0	-0.0	-0.0	-0.0	-0.0	-0.0	-0.0
0.396	-0.0	-0.0	-0.0	8.190655708312988	-1.928555965423584	-991.5393676757812	-0.0	-0.0	-0.0	-0.0	-0.0	-0.0	-0.0	-0.0	-0.0	-0.0	-0.0	-0.0
0.3965	-0.0	-0.0	-0.0	9.17348861694336	0.1365503668785095	-988.90380859375	-0.0	-0.0	-0.0	-0.0	-0.0	-0.0	-0.0	-0.0	-0.0	-0.0	-0.0	-0.0
0.397	-0.0	-0.0	-0.0	10.187342643737791	2.0425705909729004	-990.1595458984376	-0.0	-0.0	-0.0	-0.0	-0.0	-0.0	-0.0	-0.0	-0.0	-0.0	-0.0	-0.0
0.3975	-0.0	-0.0	-0.0	10.747873306274414	3.4262919425964355	-987.2651977539062	-0.0	-0.0	-0.0	-0.0	-0.0	-0.0	-0.0	-0.0	-0.0	-0.0	-0.0	-0.0
0.398	-0.0	-0.0	-0.0	11.693601608276367	4.1070170402526855	-984.5386352539062	-0.0	-0.0	-0.0	-0.0	-0.0	-0.0	-0.0	-0.0	-0.0	-0.0	-0.0	-0.0
